<?xml version="1.0" encoding="UTF-8"?>
<svg width="900px" height="900px" viewBox="0 0 900 900" version="1.1" xmlns="http://www.w3.org/2000/svg" xmlns:xlink="http://www.w3.org/1999/xlink">
    <g id="icon" stroke="none" stroke-width="1" fill="none" fill-rule="evenodd">
        <polygon id="Polygon" stroke="#AECFFF" stroke-width="10" transform="translate(450.449978, 551.036615) scale(-1, 1) rotate(28.000000) translate(-450.449978, -551.036615) " points="450.449978 252.536615 777.374568 401.786615 777.374568 700.286615 450.449978 849.536615 123.525388 700.286615 123.525388 401.786615"></polygon>
        <path d="M301.309509,56 C353.335294,63.1462906 390.02091,72.3958864 411.366357,83.7487876 C443.384527,100.778139 458.497743,107.753186 470.647071,146.064761 C482.796399,184.376337 471.689267,214.779219 459.781365,236.420214 C458.844506,238.122828 457.980175,239.663261 457.166458,241.054123 C494.822577,288.038268 516.003103,323.034952 527.333646,349.615455 C534.767467,344.486958 538.989578,341.575916 539.999251,340.881173 C542.132028,339.413636 541.502362,331.299675 541.16674,326.043943 C540.050511,308.564182 541.761775,292.275199 555.864974,285.19441 C572.941192,276.620959 589.639411,281.945453 605.418378,278.564056 C615.937689,276.309792 625.318027,270.633978 633.559391,261.536615 C632.575944,292.295022 627.365863,313.34397 617.92915,324.683461 C603.774079,341.692696 594.081277,329.581837 567.528921,340.881173 C555.00918,346.20894 542.855874,352.256179 531.069004,359.02289 C532.562746,363.090335 533.806902,366.937849 534.833575,370.583049 C542.876176,399.138293 541.527446,443.303433 530.787385,503.078469 C555.311021,511.584844 572.85993,526.308837 578.958739,546.257143 C593.571994,594.054947 536.914022,653.746606 452.409617,679.582196 C367.905212,705.417785 287.554472,687.613892 272.941217,639.816088 C258.327962,592.018284 314.985933,532.326624 399.490339,506.491035 C424.903366,498.721493 449.940742,494.898647 472.927532,494.65137 C490.012618,453.346302 496.271563,411.989873 491.705778,370.583049 C486.64543,324.691067 469.015123,285.328791 438.814859,252.496222 C433.343119,251.954048 425.756911,250.310945 414.210287,248.630948 C380.737735,243.760798 369.555861,255.468006 345.185347,219.746858 C328.938339,195.932759 314.313059,141.350473 301.309509,56 Z" id="plant" fill="#AECFFF"></path>
    </g>
</svg>